<mxfile host="app.diagrams.net" modified="2024-02-27T07:15:10.490Z" agent="Mozilla/5.0 (Windows NT 10.0; Win64; x64) AppleWebKit/537.36 (KHTML, like Gecko) Chrome/122.0.0.0 Safari/537.36 Edg/122.0.0.0" version="23.1.7" etag="fb7a6coKrjvW2bIyDk_f" type="github">
  <diagram name="第 1 页" id="Gz05Hk_lUVCYnYp9Icy0">
    <mxGraphModel>
      <root>
        <mxCell id="0" />
        <mxCell id="1" parent="0" />
      </root>
    </mxGraphModel>
  </diagram>
</mxfile>
